<svg xmlns="http://www.w3.org/2000/svg" version="1.1" viewBox="705 105 2560 1940">

<g id="color_1" fill="#2CB5A5" stroke="#2CB5A5" stroke-width="2.0" stroke-linejoin="round" vector-effect="non-scaling-stroke">
<path d="M2145.00,1211.00 L2119.00,1217.00 L2105.00,1225.00 L2091.00,1239.00 L2081.00,1255.00 L2075.00,1277.00 L2075.00,1356.00 L2079.00,1372.00 L2072.00,1377.00 L1971.00,1377.00 L1949.00,1383.00 L1927.00,1401.00 L1917.00,1417.00 L1909.00,1437.00 L1909.00,1464.00 L1919.00,1490.00 L1941.00,1514.00 L1953.00,1520.00 L1969.00,1524.00 L2072.00,1524.00 L2077.00,1529.00 L2075.00,1620.00 L2085.00,1656.00 L2105.00,1678.00 L2123.00,1688.00 L2168.00,1690.00 L2186.00,1684.00 L2204.00,1672.00 L2218.00,1654.00 L2222.00,1644.00 L2222.00,1635.00 L2226.00,1628.00 L2224.00,1529.00 L2229.00,1524.00 L2332.00,1524.00 L2362.00,1514.00 L2376.00,1502.00 L2388.00,1484.00 L2394.00,1464.00 L2394.00,1435.00 L2388.00,1417.00 L2380.00,1405.00 L2366.00,1391.00 L2350.00,1381.00 L2334.00,1377.00 L2227.00,1377.00 L2222.00,1366.00 L2226.00,1330.00 L2226.00,1283.00 L2218.00,1251.00 L2206.00,1233.00 L2184.00,1217.00 L2168.00,1211.00 L2145.00,1211.00 Z M915.00,513.00 L911.00,524.00 L873.00,583.00 L819.00,701.00 L781.00,811.00 L779.00,828.00 L765.00,865.00 L765.00,876.00 L757.00,897.00 L741.00,992.00 L733.00,1023.00 L727.00,1082.00 L723.00,1089.00 L723.00,1118.00 L717.00,1155.00 L717.00,1192.00 L713.00,1211.00 L711.00,1251.00 L711.00,1374.00 L713.00,1406.00 L717.00,1415.00 L717.00,1460.00 L721.00,1469.00 L723.00,1514.00 L727.00,1525.00 L733.00,1580.00 L761.00,1702.00 L765.00,1707.00 L785.00,1778.00 L801.00,1818.00 L819.00,1854.00 L823.00,1857.00 L831.00,1878.00 L855.00,1916.00 L883.00,1952.00 L903.00,1972.00 L943.00,2002.00 L973.00,2018.00 L1003.00,2028.00 L1041.00,2034.00 L1074.00,2034.00 L1108.00,2028.00 L1138.00,2018.00 L1184.00,1992.00 L1226.00,1954.00 L1256.00,1910.00 L1278.00,1864.00 L1294.00,1820.00 L1306.00,1755.00 L1310.00,1746.00 L1310.00,1735.00 L1314.00,1728.00 L1320.00,1673.00 L1328.00,1642.00 L1334.00,1597.00 L1338.00,1588.00 L1344.00,1535.00 L1348.00,1528.00 L1352.00,1495.00 L1362.00,1460.00 L1362.00,1441.00 L1366.00,1434.00 L1368.00,1407.00 L1386.00,1326.00 L1386.00,1311.00 L1400.00,1248.00 L1402.00,1219.00 L1410.00,1190.00 L1410.00,1175.00 L1418.00,1146.00 L1418.00,1133.00 L1430.00,1071.00 L1434.00,1062.00 L1438.00,1025.00 L1454.00,941.00 L1458.00,932.00 L1458.00,915.00 L1462.00,906.00 L1462.00,893.00 L1480.00,806.00 L1484.00,769.00 L1494.00,726.00 L1492.00,689.00 L1476.00,657.00 L1466.00,645.00 L1444.00,629.00 L1402.00,613.00 L1381.00,613.00 L1335.00,629.00 L1305.00,657.00 L1289.00,691.00 L1265.00,832.00 L1255.00,873.00 L1245.00,942.00 L1237.00,971.00 L1229.00,1034.00 L1215.00,1091.00 L1211.00,1126.00 L1207.00,1131.00 L1205.00,1164.00 L1193.00,1213.00 L1193.00,1226.00 L1165.00,1371.00 L1163.00,1396.00 L1149.00,1459.00 L1145.00,1494.00 L1141.00,1503.00 L1133.00,1572.00 L1115.00,1651.00 L1115.00,1666.00 L1111.00,1675.00 L1105.00,1722.00 L1087.00,1786.00 L1075.00,1810.00 L1060.00,1823.00 L1047.00,1823.00 L1030.00,1806.00 L1014.00,1780.00 L988.00,1720.00 L978.00,1683.00 L972.00,1672.00 L954.00,1606.00 L952.00,1587.00 L946.00,1572.00 L940.00,1525.00 L936.00,1514.00 L934.00,1483.00 L930.00,1472.00 L930.00,1441.00 L926.00,1426.00 L924.00,1371.00 L920.00,1354.00 L920.00,1235.00 L924.00,1224.00 L926.00,1163.00 L930.00,1146.00 L930.00,1113.00 L934.00,1104.00 L936.00,1069.00 L940.00,1060.00 L946.00,1015.00 L968.00,913.00 L1006.00,793.00 L1060.00,677.00 L1108.00,597.00 L1174.00,515.00 L1229.00,462.00 L1311.00,404.00 L1399.00,360.00 L1481.00,334.00 L1521.00,326.00 L1556.00,324.00 L1567.00,320.00 L1666.00,320.00 L1697.00,326.00 L1714.00,326.00 L1782.00,344.00 L1842.00,372.00 L1868.00,390.00 L1900.00,418.00 L1935.00,461.00 L1951.00,491.00 L1965.00,527.00 L1979.00,591.00 L1981.00,660.00 L1979.00,686.00 L1969.00,732.00 L1959.00,753.00 L1953.00,776.00 L1929.00,822.00 L1893.00,870.00 L1836.00,925.00 L1776.00,967.00 L1706.00,1003.00 L1693.00,1007.00 L1690.00,1011.00 L1616.00,1041.00 L1605.00,1043.00 L1565.00,1063.00 L1543.00,1081.00 L1525.00,1103.00 L1513.00,1129.00 L1505.00,1159.00 L1505.00,1222.00 L1529.00,1362.00 L1547.00,1427.00 L1549.00,1450.00 L1553.00,1457.00 L1557.00,1480.00 L1597.00,1606.00 L1605.00,1619.00 L1605.00,1626.00 L1623.00,1668.00 L1669.00,1756.00 L1719.00,1830.00 L1763.00,1882.00 L1766.00,1882.00 L1807.00,1922.00 L1865.00,1964.00 L1927.00,1996.00 L1987.00,2018.00 L2025.00,2026.00 L2038.00,2026.00 L2047.00,2030.00 L2072.00,2030.00 L2087.00,2034.00 L2156.00,2034.00 L2264.00,2016.00 L2283.00,2006.00 L2346.00,1984.00 L2400.00,1956.00 L2405.00,1950.00 L2450.00,1922.00 L2498.00,1884.00 L2574.00,1810.00 L2586.00,1791.00 L2600.00,1778.00 L2642.00,1726.00 L2668.00,1690.00 L2682.00,1665.00 L2688.00,1660.00 L2690.00,1653.00 L2704.00,1638.00 L2713.00,1645.00 L2719.00,1660.00 L2735.00,1681.00 L2743.00,1698.00 L2749.00,1703.00 L2779.00,1752.00 L2785.00,1757.00 L2805.00,1790.00 L2847.00,1848.00 L2887.00,1896.00 L2939.00,1946.00 L2965.00,1966.00 L3015.00,1996.00 L3065.00,2018.00 L3107.00,2030.00 L3147.00,2034.00 L3182.00,2030.00 L3208.00,2020.00 L3220.00,2012.00 L3240.00,1990.00 L3248.00,1974.00 L3252.00,1951.00 L3256.00,1946.00 L3256.00,1907.00 L3242.00,1875.00 L3218.00,1849.00 L3200.00,1837.00 L3178.00,1829.00 L3129.00,1819.00 L3103.00,1807.00 L3067.00,1781.00 L3036.00,1750.00 L2998.00,1704.00 L2976.00,1669.00 L2970.00,1664.00 L2966.00,1653.00 L2928.00,1602.00 L2882.00,1527.00 L2872.00,1516.00 L2870.00,1509.00 L2832.00,1454.00 L2832.00,1447.00 L2838.00,1437.00 L2864.00,1406.00 L2876.00,1385.00 L2928.00,1315.00 L2950.00,1292.00 L2974.00,1259.00 L3027.00,1206.00 L3065.00,1176.00 L3087.00,1164.00 L3119.00,1154.00 L3152.00,1150.00 L3176.00,1140.00 L3194.00,1128.00 L3214.00,1106.00 L3228.00,1078.00 L3228.00,1023.00 L3212.00,989.00 L3180.00,961.00 L3148.00,947.00 L3101.00,947.00 L3057.00,957.00 L3025.00,969.00 L2961.00,1001.00 L2903.00,1043.00 L2829.00,1113.00 L2809.00,1140.00 L2789.00,1159.00 L2777.00,1178.00 L2737.00,1227.00 L2725.00,1248.00 L2712.00,1259.00 L2705.00,1259.00 L2702.00,1256.00 L2702.00,1251.00 L2672.00,1210.00 L2642.00,1161.00 L2584.00,1089.00 L2542.00,1045.00 L2482.00,997.00 L2450.00,977.00 L2424.00,965.00 L2364.00,947.00 L2335.00,947.00 L2307.00,953.00 L2277.00,969.00 L2261.00,985.00 L2243.00,1015.00 L2241.00,1074.00 L2243.00,1084.00 L2253.00,1102.00 L2283.00,1132.00 L2313.00,1146.00 L2326.00,1148.00 L2354.00,1160.00 L2384.00,1180.00 L2417.00,1211.00 L2495.00,1313.00 L2497.00,1320.00 L2511.00,1337.00 L2547.00,1394.00 L2553.00,1399.00 L2555.00,1406.00 L2579.00,1437.00 L2583.00,1452.00 L2479.00,1602.00 L2439.00,1647.00 L2425.00,1668.00 L2382.00,1713.00 L2375.00,1717.00 L2374.00,1721.00 L2316.00,1769.00 L2274.00,1793.00 L2194.00,1821.00 L2181.00,1821.00 L2176.00,1825.00 L2164.00,1827.00 L2071.00,1825.00 L2007.00,1805.00 L1943.00,1765.00 L1896.00,1718.00 L1850.00,1652.00 L1822.00,1600.00 L1778.00,1490.00 L1736.00,1334.00 L1730.00,1291.00 L1724.00,1274.00 L1722.00,1251.00 L1716.00,1230.00 L1719.00,1216.00 L1780.00,1194.00 L1872.00,1148.00 L1930.00,1110.00 L2002.00,1052.00 L2002.00,1049.00 L2008.00,1046.00 L2058.00,994.00 L2080.00,966.00 L2124.00,898.00 L2154.00,836.00 L2154.00,829.00 L2172.00,778.00 L2174.00,763.00 L2178.00,758.00 L2178.00,743.00 L2182.00,736.00 L2182.00,719.00 L2186.00,708.00 L2190.00,650.00 L2186.00,557.00 L2178.00,524.00 L2178.00,511.00 L2174.00,506.00 L2158.00,447.00 L2140.00,403.00 L2136.00,400.00 L2136.00,395.00 L2112.00,351.00 L2070.00,293.00 L2008.00,233.00 L1956.00,197.00 L1886.00,161.00 L1812.00,135.00 L1748.00,121.00 L1666.00,111.00 L1575.00,111.00 L1548.00,117.00 L1519.00,117.00 L1477.00,123.00 L1470.00,127.00 L1449.00,129.00 L1442.00,133.00 L1431.00,133.00 L1395.00,143.00 L1303.00,177.00 L1213.00,223.00 L1176.00,249.00 L1153.00,261.00 L1111.00,293.00 L1029.00,369.00 L973.00,433.00 L969.00,442.00 L951.00,461.00 L915.00,513.00 Z"/>
</g>
</svg>
